<svg xmlns="http://www.w3.org/2000/svg" xml:space="preserve" width="661.839" height="120"><path d="M25.003 136.44v11.844a.592.592 0 0 1-.592.592h-2.843a.592.592 0 0 1-.592-.592v-11.845c0-.327.265-.592.592-.592h2.843c.327 0 .592.265.592.592zm-5.804-3.91h-2.842a.592.592 0 0 0-.593.593v15.162c0 .326.266.592.593.592h2.842a.592.592 0 0 0 .593-.592v-15.162a.592.592 0 0 0-.593-.593zm-5.211 6.634h-2.843a.592.592 0 0 0-.592.592v8.528c0 .327.265.592.592.592h2.843a.592.592 0 0 0 .592-.592v-8.528a.592.592 0 0 0-.592-.592z" style="fill:#ff0050;fill-opacity:1;stroke-width:.0142137" transform="translate(-34.172 -669.541) scale(5.23615)"/><path d="M22.887 134.323v11.844a.593.593 0 0 1-.593.593h-2.842a.593.593 0 0 1-.593-.593v-11.844c0-.327.266-.593.593-.593h2.842c.327 0 .593.266.593.593zm-5.804-3.91H14.24a.592.592 0 0 0-.592.593v15.162c0 .327.265.592.592.592h2.843a.592.592 0 0 0 .592-.592v-15.162a.592.592 0 0 0-.592-.592zm-5.212 6.634H9.028a.592.592 0 0 0-.592.592v8.528c0 .327.265.593.592.593h2.843a.592.592 0 0 0 .592-.593v-8.528a.592.592 0 0 0-.592-.592z" style="fill:#00f2ea;fill-opacity:1;stroke-width:.0142137" transform="translate(-34.172 -669.541) scale(5.23615)"/><path d="M35.623 147.818q-1.896 0-3.635-.496-1.738-.52-2.8-1.332l1.242-2.755q1.016.723 2.393 1.197 1.4.451 2.823.451 1.083 0 1.738-.203.677-.226.994-.61.316-.383.316-.88 0-.632-.497-.993-.497-.384-1.31-.61-.812-.248-1.806-.452-.97-.225-1.964-.541-.97-.317-1.784-.813-.813-.497-1.332-1.31-.497-.813-.497-2.077 0-1.355.723-2.46.745-1.13 2.213-1.785 1.49-.677 3.725-.677 1.49 0 2.935.361 1.445.34 2.551 1.039l-1.129 2.777q-1.106-.632-2.212-.926-1.106-.316-2.168-.316-1.06 0-1.738.249-.677.248-.971.654-.293.384-.293.903 0 .61.496.994.497.361 1.31.587.813.226 1.783.451.994.226 1.965.52.993.293 1.806.79.813.497 1.31 1.31.519.812.519 2.054 0 1.332-.745 2.439-.745 1.106-2.236 1.783-1.467.677-3.725.677zM49.554 147.728q-2.145 0-3.342-1.084-1.197-1.106-1.197-3.273v-10.657h3.523v10.612q0 .767.406 1.196.406.407 1.106.407.836 0 1.423-.452l.948 2.484q-.542.383-1.31.587-.745.18-1.557.18zm-6.413-9.347v-2.71h8.422v2.71zM61.858 147.548v-2.371l-.225-.52v-4.244q0-1.129-.7-1.761-.678-.632-2.1-.632-.97 0-1.92.316-.925.293-1.58.813l-1.264-2.461q.994-.7 2.393-1.084 1.4-.384 2.845-.384 2.777 0 4.313 1.31 1.535 1.31 1.535 4.086v6.932zm-3.702.18q-1.423 0-2.439-.474-1.016-.497-1.558-1.332-.541-.835-.541-1.874 0-1.084.519-1.897.542-.812 1.693-1.264 1.152-.474 3.003-.474h3.229v2.055h-2.845q-1.242 0-1.716.406-.452.406-.452 1.016 0 .677.52 1.084.542.383 1.467.383.88 0 1.58-.406.7-.429 1.017-1.242l.542 1.626q-.384 1.174-1.4 1.784-1.016.61-2.62.61zM73.305 147.728q-2.144 0-3.341-1.084-1.197-1.106-1.197-3.273v-10.657h3.522v10.612q0 .767.407 1.196.406.407 1.106.407.836 0 1.423-.452l.948 2.484q-.542.383-1.31.587-.745.18-1.558.18zm-6.412-9.347v-2.71h8.422v2.71zM78.16 147.548V135.4h3.522v12.147zm1.76-13.84q-.97 0-1.58-.565-.61-.565-.61-1.4t.61-1.4q.61-.564 1.58-.564.972 0 1.581.542.61.519.61 1.354 0 .88-.61 1.468-.587.564-1.58.564zM89.042 147.728q-1.558 0-3.003-.361-1.422-.384-2.257-.948l1.174-2.53q.835.52 1.964.859 1.151.316 2.258.316 1.219 0 1.716-.294.519-.293.519-.812 0-.43-.407-.633-.383-.225-1.038-.338-.655-.113-1.445-.226-.768-.113-1.558-.293-.79-.204-1.445-.587-.655-.384-1.061-1.04-.384-.654-.384-1.692 0-1.152.655-2.032.677-.88 1.941-1.378 1.265-.519 3.026-.519 1.242 0 2.529.271 1.287.27 2.145.79l-1.175 2.506q-.88-.519-1.783-.7-.88-.203-1.716-.203-1.174 0-1.716.316t-.542.813q0 .452.384.677.406.226 1.061.362.655.135 1.423.248.79.09 1.58.294.79.203 1.422.587.655.36 1.062 1.016.406.632.406 1.67 0 1.13-.677 2.01-.678.858-1.965 1.354-1.264.497-3.093.497zM100.467 147.548v-12.825h-5.058v-2.98h13.773v2.98h-5.058v12.825zM110.897 147.548V135.4h3.523v12.147zm1.762-13.84q-.971 0-1.58-.565-.61-.565-.61-1.4t.61-1.4q.609-.564 1.58-.564.97 0 1.58.542.61.519.61 1.354 0 .88-.61 1.468-.587.564-1.58.564zM120.606 145.064l.09-4.29 5.667-5.373h4.2l-5.441 5.531-1.83 1.49zm-2.913 2.484v-16.753h3.523v16.753zm9.054 0-4.11-5.103 2.214-2.732 6.163 7.835z" style="font-weight:700;font-size:22.5778px;font-family:Montserrat;-inkscape-font-specification:&quot;Montserrat Bold&quot;;fill:#fff;stroke-width:.264583" transform="translate(-34.172 -669.541) scale(5.23615)"/><path d="M23.945 135.38v11.846a.592.592 0 0 1-.592.592H20.51a.592.592 0 0 1-.592-.592V135.38c0-.327.265-.592.592-.592h2.843c.327 0 .592.265.592.592zm-5.804-3.908h-2.843a.592.592 0 0 0-.592.592v15.162c0 .327.265.592.592.592h2.843a.592.592 0 0 0 .592-.592v-15.162a.592.592 0 0 0-.592-.592zm-5.212 6.633h-2.842a.592.592 0 0 0-.593.593v8.528c0 .327.266.592.593.592h2.842a.592.592 0 0 0 .593-.592v-8.528a.592.592 0 0 0-.593-.593z" style="fill:#fff;stroke-width:.0142137" transform="translate(-34.172 -669.541) scale(5.23615)"/></svg>