<?xml version="1.0" encoding="UTF-8" standalone="no"?>
<!-- Created with Inkscape (http://www.inkscape.org/) -->

<svg
   width="661.83899"
   height="120"
   viewBox="0 0 661.83899 120"
   version="1.1"
   id="svg5"
   xml:space="preserve"
   inkscape:version="1.2.2 (b0a8486541, 2022-12-01)"
   sodipodi:docname="statistik-darkmode.svg"
   inkscape:export-filename="statistik-darkmode.webp"
   inkscape:export-xdpi="80"
   inkscape:export-ydpi="80"
   xmlns:inkscape="http://www.inkscape.org/namespaces/inkscape"
   xmlns:sodipodi="http://sodipodi.sourceforge.net/DTD/sodipodi-0.dtd"
   xmlns="http://www.w3.org/2000/svg"
   xmlns:svg="http://www.w3.org/2000/svg"><sodipodi:namedview
     id="namedview7"
     pagecolor="#ffffff"
     bordercolor="#000000"
     borderopacity="0.25"
     inkscape:showpageshadow="2"
     inkscape:pageopacity="0"
     inkscape:pagecheckerboard="0"
     inkscape:deskcolor="#d1d1d1"
     inkscape:document-units="px"
     showgrid="false"
     inkscape:zoom="0.65175812"
     inkscape:cx="-59.070994"
     inkscape:cy="-35.289165"
     inkscape:window-width="2560"
     inkscape:window-height="1043"
     inkscape:window-x="0"
     inkscape:window-y="0"
     inkscape:window-maximized="1"
     inkscape:current-layer="g2650" /><defs
     id="defs2" /><g
     inkscape:label="Layer 1"
     inkscape:groupmode="layer"
     id="layer1"
     transform="translate(-218.29602,-145.61983)"><g
       id="g2777"
       transform="translate(35.274856,9.17218)"><g
         id="g2761"><g
           id="g2650"
           transform="matrix(5.2361504,0,0,5.2361504,148.84932,-533.09377)"><path
             d="m 25.003327,136.43927 v 11.84475 c 0,0.32692 -0.26535,0.59226 -0.59227,0.59226 h -2.84274 c -0.32692,0 -0.59227,-0.26534 -0.59227,-0.59226 l 4e-5,-11.84475 c 0,-0.32692 0.26535,-0.59225 0.59226,-0.59225 h 2.84275 c 0.32692,0 0.59226,0.26533 0.59226,0.59225 z m -5.80392,-3.90878 h -2.84274 c -0.32693,0 -0.59227,0.26534 -0.59227,0.59226 v 15.16181 c 0,0.32692 0.26534,0.59226 0.59227,0.59226 h 2.84274 c 0.32693,0 0.59227,-0.26534 0.59227,-0.59226 v -15.16181 c 0,-0.32692 -0.26534,-0.59226 -0.59227,-0.59226 z m -5.21175,6.63314 h -2.84275 c -0.32692,0 -0.59226,0.26533 -0.59226,0.59226 v 8.52825 c 0,0.32692 0.26534,0.59226 0.59226,0.59226 h 2.84275 c 0.32692,0 0.59226,-0.26534 0.59226,-0.59226 v -8.52825 c 0,-0.32693 -0.26534,-0.59226 -0.59226,-0.59226 z"
             id="path359-3"
             style="fill:#ff0050;fill-opacity:1;stroke-width:0.0142137"
             inkscape:export-filename="statistik.webp"
             inkscape:export-xdpi="133"
             inkscape:export-ydpi="133" /><path
             d="m 22.886657,134.3226 v 11.84474 c 0,0.32692 -0.265352,0.59227 -0.592267,0.59227 h -2.842744 c -0.326914,0 -0.592267,-0.26535 -0.592267,-0.59227 l 4.4e-5,-11.84474 c 0,-0.32692 0.265341,-0.59225 0.592256,-0.59225 h 2.842755 c 0.326914,0 0.592256,0.26533 0.592256,0.59225 z m -5.803917,-3.90879 h -2.842744 c -0.326925,0 -0.592267,0.26535 -0.592267,0.59227 v 15.1618 c 0,0.32692 0.265342,0.59227 0.592267,0.59227 h 2.842744 c 0.326926,0 0.592267,-0.26535 0.592267,-0.59227 v -15.1618 c 0,-0.32692 -0.265341,-0.59227 -0.592267,-0.59227 z m -5.211747,6.63314 H 9.0282386 c -0.326918,0 -0.59226,0.26534 -0.59226,0.59227 v 8.52824 c 0,0.32692 0.265342,0.59226 0.59226,0.59226 h 2.8427544 c 0.326914,0 0.592256,-0.26534 0.592256,-0.59226 v -8.52825 c 0,-0.32693 -0.265342,-0.59226 -0.592256,-0.59226 z"
             id="path359-6"
             style="fill:#00f2ea;fill-opacity:1;stroke-width:0.0142137" /><path
             d="m 35.623066,147.81848 q -1.896535,0 -3.635026,-0.49671 -1.73849,-0.51929 -2.799647,-1.33209 l 1.241779,-2.75449 q 1.016001,0.72249 2.393247,1.19662 1.399824,0.45156 2.822225,0.45156 1.083734,0 1.738491,-0.2032 0.677334,-0.22578 0.993423,-0.6096 0.316089,-0.38383 0.316089,-0.88054 0,-0.63218 -0.496711,-0.99342 -0.496712,-0.38383 -1.309513,-0.6096 -0.812801,-0.24836 -1.806224,-0.45156 -0.970845,-0.22578 -1.964269,-0.54187 -0.970845,-0.31609 -1.783646,-0.8128 -0.812801,-0.49671 -1.33209,-1.30951 -0.496712,-0.8128 -0.496712,-2.07716 0,-1.35467 0.72249,-2.46098 0.745067,-1.12889 2.212624,-1.78364 1.490135,-0.67734 3.725337,-0.67734 1.490135,0 2.935115,0.36125 1.444979,0.33866 2.551291,1.03858 l -1.12889,2.77707 q -1.106312,-0.63218 -2.212624,-0.92569 -1.106313,-0.31609 -2.167469,-0.31609 -1.061157,0 -1.738491,0.24835 -0.677334,0.24836 -0.970845,0.65476 -0.293512,0.38382 -0.293512,0.90311 0,0.6096 0.496712,0.99342 0.496711,0.36125 1.309512,0.58703 0.812801,0.22577 1.783646,0.45155 0.993424,0.22578 1.964269,0.51929 0.993423,0.29351 1.806224,0.79022 0.812801,0.49672 1.309513,1.30952 0.519289,0.8128 0.519289,2.05458 0,1.33209 -0.745067,2.4384 -0.745068,1.10631 -2.235203,1.78365 -1.467557,0.67733 -3.725337,0.67733 z"
             id="path331"
             style="font-weight:bold;font-size:22.5778px;font-family:Montserrat;-inkscape-font-specification:'Montserrat Bold';stroke-width:0.264583;fill:#ffffff" /><path
             d="m 49.55358,147.72817 q -2.144891,0 -3.341514,-1.08374 -1.196624,-1.10631 -1.196624,-3.27378 v -10.65672 h 3.522137 v 10.61157 q 0,0.76764 0.406401,1.19662 0.4064,0.4064 1.106312,0.4064 0.835378,0 1.422401,-0.45155 l 0.948268,2.48355 q -0.541867,0.38383 -1.309513,0.58703 -0.745067,0.18062 -1.557868,0.18062 z m -6.412095,-9.34721 v -2.70934 h 8.421519 v 2.70934 z"
             id="path333"
             style="font-weight:bold;font-size:22.5778px;font-family:Montserrat;-inkscape-font-specification:'Montserrat Bold';stroke-width:0.264583;fill:#ffffff" /><path
             d="m 61.858469,147.54755 v -2.37067 l -0.225778,-0.51929 v -4.24463 q 0,-1.12889 -0.699911,-1.76107 -0.677335,-0.63218 -2.099736,-0.63218 -0.970845,0 -1.919113,0.31609 -0.92569,0.29352 -1.580446,0.8128 l -1.264357,-2.46098 q 0.993423,-0.69991 2.393247,-1.08373 1.399824,-0.38382 2.844803,-0.38382 2.777069,0 4.31236,1.30951 1.53529,1.30951 1.53529,4.08658 v 6.93139 z m -3.702759,0.18062 q -1.422401,0 -2.438402,-0.47414 -1.016001,-0.49671 -1.557869,-1.33209 -0.541867,-0.83537 -0.541867,-1.87395 0,-1.08374 0.519289,-1.89654 0.541868,-0.8128 1.693336,-1.26435 1.151467,-0.47414 3.002847,-0.47414 h 3.228626 v 2.05458 h -2.844803 q -1.241779,0 -1.715913,0.4064 -0.451556,0.4064 -0.451556,1.016 0,0.67734 0.519289,1.08374 0.541867,0.38382 1.467557,0.38382 0.880534,0 1.580446,-0.4064 0.699912,-0.42898 1.016001,-1.24178 l 0.541868,1.6256 q -0.383823,1.17405 -1.399824,1.78365 -1.016001,0.6096 -2.619025,0.6096 z"
             id="path335"
             style="font-weight:bold;font-size:22.5778px;font-family:Montserrat;-inkscape-font-specification:'Montserrat Bold';stroke-width:0.264583;fill:#ffffff" /><path
             d="m 73.305427,147.72817 q -2.144892,0 -3.341515,-1.08374 -1.196623,-1.10631 -1.196623,-3.27378 v -10.65672 h 3.522137 v 10.61157 q 0,0.76764 0.4064,1.19662 0.4064,0.4064 1.106312,0.4064 0.835379,0 1.422402,-0.45155 l 0.948267,2.48355 q -0.541867,0.38383 -1.309512,0.58703 -0.745068,0.18062 -1.557868,0.18062 z m -6.412096,-9.34721 v -2.70934 h 8.42152 v 2.70934 z"
             id="path337"
             style="font-weight:bold;font-size:22.5778px;font-family:Montserrat;-inkscape-font-specification:'Montserrat Bold';stroke-width:0.264583;fill:#ffffff" /><path
             d="m 78.159641,147.54755 v -12.14686 h 3.522137 v 12.14686 z m 1.761069,-13.8402 q -0.970846,0 -1.580446,-0.56444 -0.609601,-0.56445 -0.609601,-1.39982 0,-0.83538 0.609601,-1.39983 0.6096,-0.56444 1.580446,-0.56444 0.970845,0 1.580446,0.54186 0.609601,0.51929 0.609601,1.35467 0,0.88054 -0.609601,1.46756 -0.587023,0.56444 -1.580446,0.56444 z"
             id="path339"
             style="font-weight:bold;font-size:22.5778px;font-family:Montserrat;-inkscape-font-specification:'Montserrat Bold';stroke-width:0.264583;fill:#ffffff" /><path
             d="m 89.042156,147.72817 q -1.557868,0 -3.002847,-0.36125 -1.422402,-0.38382 -2.25778,-0.94826 l 1.174045,-2.52872 q 0.835379,0.51929 1.964269,0.85796 1.151468,0.31609 2.25778,0.31609 1.219201,0 1.715913,-0.29351 0.519289,-0.29351 0.519289,-0.8128 0,-0.42898 -0.4064,-0.63218 -0.383823,-0.22578 -1.038579,-0.33867 -0.654756,-0.11289 -1.444979,-0.22578 -0.767646,-0.11289 -1.557869,-0.29351 -0.790223,-0.2032 -1.444979,-0.58702 -0.654756,-0.38382 -1.061156,-1.03858 -0.383823,-0.65476 -0.383823,-1.69334 0,-1.15146 0.654756,-2.032 0.677334,-0.88053 1.941691,-1.37724 1.264357,-0.51929 3.025425,-0.51929 1.241779,0 2.528714,0.27093 1.286935,0.27093 2.144891,0.79022 l -1.174046,2.50614 q -0.880534,-0.51929 -1.783646,-0.69991 -0.880534,-0.2032 -1.715913,-0.2032 -1.174045,0 -1.715913,0.31609 -0.541867,0.31609 -0.541867,0.8128 0,0.45155 0.383823,0.67733 0.4064,0.22578 1.061157,0.36125 0.654756,0.13546 1.422401,0.24835 0.790223,0.0903 1.580446,0.29351 0.790223,0.2032 1.422401,0.58703 0.654757,0.36124 1.061157,1.016 0.406401,0.63218 0.406401,1.67075 0,1.12889 -0.677335,2.00943 -0.677334,0.85796 -1.964268,1.35467 -1.264357,0.49671 -3.093159,0.49671 z"
             id="path341"
             style="font-weight:bold;font-size:22.5778px;font-family:Montserrat;-inkscape-font-specification:'Montserrat Bold';stroke-width:0.264583;fill:#ffffff" /><path
             d="m 100.46653,147.54755 v -12.82419 h -5.057431 v -2.98027 h 13.772471 v 2.98027 h -5.05743 v 12.82419 z"
             id="path343"
             style="font-weight:bold;font-size:22.5778px;font-family:Montserrat;-inkscape-font-specification:'Montserrat Bold';stroke-width:0.264583;fill:#ffffff" /><path
             d="m 110.89748,147.54755 v -12.14686 h 3.52214 v 12.14686 z m 1.76107,-13.8402 q -0.97085,0 -1.58045,-0.56444 -0.6096,-0.56445 -0.6096,-1.39982 0,-0.83538 0.6096,-1.39983 0.6096,-0.56444 1.58045,-0.56444 0.97084,0 1.58045,0.54186 0.6096,0.51929 0.6096,1.35467 0,0.88054 -0.6096,1.46756 -0.58703,0.56444 -1.58045,0.56444 z"
             id="path345"
             style="font-weight:bold;font-size:22.5778px;font-family:Montserrat;-inkscape-font-specification:'Montserrat Bold';stroke-width:0.264583;fill:#ffffff" /><path
             d="m 120.60595,145.06399 0.0903,-4.28978 5.66703,-5.37352 h 4.19947 l -5.44125,5.53156 -1.82881,1.49014 z m -2.91254,2.48356 v -16.75273 h 3.52214 v 16.75273 z m 9.0537,0 -4.10916,-5.10259 2.21262,-2.73191 6.16374,7.8345 z"
             id="path347"
             style="font-weight:bold;font-size:22.5778px;font-family:Montserrat;-inkscape-font-specification:'Montserrat Bold';stroke-width:0.264583;fill:#ffffff" /><path
             d="m 23.944991,135.38093 v 11.84475 c 0,0.32692 -0.265352,0.59226 -0.592267,0.59226 H 20.50998 c -0.326914,0 -0.592267,-0.26534 -0.592267,-0.59226 l 4.4e-5,-11.84475 c 0,-0.32692 0.265341,-0.59225 0.592256,-0.59225 h 2.842755 c 0.326914,0 0.592256,0.26533 0.592256,0.59225 z m -5.803917,-3.90878 H 15.29833 c -0.326925,0 -0.592267,0.26534 -0.592267,0.59226 v 15.16181 c 0,0.32692 0.265342,0.59226 0.592267,0.59226 h 2.842744 c 0.326926,0 0.592267,-0.26534 0.592267,-0.59226 v -15.16181 c 0,-0.32692 -0.265341,-0.59226 -0.592267,-0.59226 z m -5.211747,6.63314 h -2.842755 c -0.326918,0 -0.5922597,0.26533 -0.5922597,0.59226 v 8.52825 c 0,0.32692 0.2653417,0.59226 0.5922597,0.59226 h 2.842755 c 0.326914,0 0.592256,-0.26534 0.592256,-0.59226 v -8.52825 c 0,-0.32693 -0.265342,-0.59226 -0.592256,-0.59226 z"
             id="path359"
             style="stroke-width:0.0142137;fill:#ffffff" /></g></g></g></g></svg>
